<svg id="Layer_1" data-name="Layer 1" xmlns="http://www.w3.org/2000/svg" viewBox="0 0 27.13 22.79"><defs><style>.cls-1{fill:#fff;}</style></defs><title>icon</title><path class="cls-1" d="M26.6,5.54,13.92.07a.94.94,0,0,0-.7,0L.54,5.54a.89.89,0,0,0,0,1.63L3,8.23V21.9a.88.88,0,0,0,.52.81.89.89,0,0,0,1-.14l4.47-3.9L13,22.55a.9.9,0,0,0,1.2,0l4.37-3.89,4,3.87a.9.9,0,0,0,1.51-.65V8.23L26.6,7.17a.89.89,0,0,0,0-1.63ZM24,6.36l-10.43,4.5L3.13,6.36l10.44-4.5ZM4.76,9l8.46,3.65a.85.85,0,0,0,.7,0L22.38,9V19.82l-3.14-3a.89.89,0,0,0-1.2,0l-4.38,3.9L9.55,16.82a.89.89,0,0,0-.61-.24.86.86,0,0,0-.58.22L4.76,20Z"/></svg>