<svg id="Layer_1" data-name="Layer 1" xmlns="http://www.w3.org/2000/svg" viewBox="0 0 22.05 28.96"><defs><style>.cls-1{fill:#fff;}</style></defs><title>icon</title><path class="cls-1" d="M19.75,0H2.3A2.3,2.3,0,0,0,0,2.3V26.66A2.3,2.3,0,0,0,2.3,29H19.75a2.3,2.3,0,0,0,2.3-2.3V2.3A2.3,2.3,0,0,0,19.75,0Zm1.64,26.66a1.64,1.64,0,0,1-1.64,1.64H2.3A1.64,1.64,0,0,1,.66,26.66V2.3A1.65,1.65,0,0,1,2.3.66H19.75A1.65,1.65,0,0,1,21.39,2.3Z"/><path class="cls-1" d="M18.57,14.15H7.64a.33.33,0,1,0,0,.66H18.57a.33.33,0,0,0,0-.66Z"/><path class="cls-1" d="M18.57,9.73H7.64a.33.33,0,0,0,0,.66H18.57a.33.33,0,0,0,0-.66Z"/><path class="cls-1" d="M18.57,18.57H7.64a.33.33,0,0,0,0,.66H18.57a.33.33,0,0,0,0-.66Z"/><path class="cls-1" d="M18.57,5.31H7.64a.33.33,0,0,0,0,.66H18.57a.33.33,0,0,0,0-.66Z"/><path class="cls-1" d="M18.57,23H7.64a.33.33,0,0,0,0,.66H18.57a.33.33,0,0,0,0-.66Z"/><path class="cls-1" d="M4.26,12.73A1.75,1.75,0,1,0,6,14.48,1.76,1.76,0,0,0,4.26,12.73Zm0,2.84a1.09,1.09,0,1,1,1.09-1.09A1.09,1.09,0,0,1,4.26,15.57Z"/><path class="cls-1" d="M4.26,7.87A1.76,1.76,0,1,0,6,9.62,1.76,1.76,0,0,0,4.26,7.87Zm0,2.85a1.1,1.1,0,1,1,1.09-1.1A1.09,1.09,0,0,1,4.26,10.72Z"/><path class="cls-1" d="M4.26,3A1.75,1.75,0,1,0,6,4.77,1.75,1.75,0,0,0,4.26,3Zm0,2.84A1.09,1.09,0,1,1,5.35,4.77,1.09,1.09,0,0,1,4.26,5.86Z"/><path class="cls-1" d="M4.26,17.15A1.75,1.75,0,1,0,6,18.9,1.76,1.76,0,0,0,4.26,17.15Zm0,2.84A1.09,1.09,0,1,1,5.35,18.9,1.09,1.09,0,0,1,4.26,20Z"/><path class="cls-1" d="M4.26,21.57A1.75,1.75,0,1,0,6,23.32,1.76,1.76,0,0,0,4.26,21.57Zm0,2.85a1.1,1.1,0,1,1,1.09-1.1A1.09,1.09,0,0,1,4.26,24.42Z"/></svg>