<svg id="Layer_1" data-name="Layer 1" xmlns="http://www.w3.org/2000/svg" viewBox="0 0 24.12 24.1"><defs><style>.cls-1{fill:#fff;}</style></defs><title>icon</title><path class="cls-1" d="M23.31,2.81H15.6l-.14-.4a3.61,3.61,0,0,0-6.81,0l-.14.4H.81a.81.81,0,1,0,0,1.61h7.7l.14.4a3.61,3.61,0,0,0,6.81,0l.14-.4h7.71a.81.81,0,0,0,0-1.61ZM12.06,5.62a2,2,0,1,1,2-2A2,2,0,0,1,12.06,5.62ZM23.31,19.68H15.6l-.14-.4a3.62,3.62,0,0,0-6.81,0l-.14.4H.81a.81.81,0,1,0,0,1.61h7.7l.14.4a3.61,3.61,0,0,0,6.81,0l.14-.4h7.71a.81.81,0,0,0,0-1.61ZM12.06,22.49a2,2,0,1,1,2-2A2,2,0,0,1,12.06,22.49Zm12-10.85a3.62,3.62,0,0,0-3.6-3.21,3.71,3.71,0,0,0-2.09.67,3.6,3.6,0,0,0-1.32,1.74l-.14.4H.81a.81.81,0,0,0,0,1.62H17l.14.4a3.62,3.62,0,0,0,7-1.62Zm-3.61,2.42a2,2,0,1,1,2-2A2,2,0,0,1,20.49,14.06Z"/></svg>