<svg id="Layer_1" data-name="Layer 1" xmlns="http://www.w3.org/2000/svg" viewBox="0 0 22.04 23.95"><defs><style>.cls-1{fill:#c4c8de;}.cls-2{fill:#4133ff;fill-rule:evenodd;}</style></defs><title>icon</title><path class="cls-1" d="M19.93,18.47c-.22-.21-1.94-2-2-7.61h0a4.14,4.14,0,0,1-3.17-6.79,9,9,0,0,0-1.41-.93V3a3.08,3.08,0,0,0-3-3,3.08,3.08,0,0,0-3,3v.16a8,8,0,0,0-2.54,2,8.65,8.65,0,0,0-2.06,5.41c0,5.8-1.79,7.64-2,7.86a1.66,1.66,0,0,0-.7,1.79A1.64,1.64,0,0,0,1.67,21.4H7a.9.9,0,0,0,0,1.14,4.58,4.58,0,0,0,6.61,0,.72.72,0,0,0,0-1.09H19a1.69,1.69,0,0,0,1.62-1.19A1.43,1.43,0,0,0,19.93,18.47ZM10.34,1.63a1.39,1.39,0,0,1,1.25.92,8.92,8.92,0,0,0-1.25-.11,7.94,7.94,0,0,0-1.24.11A1.36,1.36,0,0,1,10.34,1.63Zm-.05,20.64a3.06,3.06,0,0,1-2.17-.92H12.4A2.64,2.64,0,0,1,10.29,22.27Z"/><path class="cls-2" d="M17.9,2.59a4.14,4.14,0,0,0,0,8.27h0a4.14,4.14,0,0,0,0-8.27Z"/></svg>