<svg id="Layer_1" data-name="Layer 1" xmlns="http://www.w3.org/2000/svg" viewBox="0 0 24.3 24.3"><defs><style>.cls-1{fill:#fff;}</style></defs><title>icon</title><path class="cls-1" d="M3.32,17.66A3.32,3.32,0,1,0,6.64,21,3.32,3.32,0,0,0,3.32,17.66Zm0,5A1.82,1.82,0,0,1,1.5,20.85,1.74,1.74,0,0,1,3.32,19a1.74,1.74,0,0,1,1.82,1.82A1.82,1.82,0,0,1,3.32,22.66Zm8.83-5A3.32,3.32,0,1,0,15.47,21,3.32,3.32,0,0,0,12.15,17.66Zm0,5a1.82,1.82,0,0,1-1.82-1.81A1.74,1.74,0,0,1,12.15,19,1.74,1.74,0,0,1,14,20.85,1.82,1.82,0,0,1,12.15,22.66Zm8.83-5A3.32,3.32,0,1,0,24.3,21,3.32,3.32,0,0,0,21,17.66Zm0,5a1.82,1.82,0,0,1-1.82-1.81,1.82,1.82,0,0,1,3.64,0A1.82,1.82,0,0,1,21,22.66ZM11.24,6.51a3.25,3.25,0,0,0,1.82,0,3.32,3.32,0,1,0-1.82,0Zm.91-5A1.74,1.74,0,0,1,14,3.32a1.82,1.82,0,0,1-3.64,0A1.74,1.74,0,0,1,12.15,1.5Zm7,11.15V10.83a3.32,3.32,0,0,0-3.32-3.32H8.33a3.48,3.48,0,0,0-3.19,3.32v1.82H1.32v1.5H23v-1.5Zm-1.37,0H6.64V10.83A1.83,1.83,0,0,1,8.46,9H16a1.82,1.82,0,0,1,1.82,1.82Z"/></svg>