<svg id="Layer_1" data-name="Layer 1" xmlns="http://www.w3.org/2000/svg" viewBox="0 0 21.78 25.08"><defs><style>.cls-1{fill:#fff;}</style></defs><title>icon</title><path class="cls-1" d="M10.84,25.08A5,5,0,0,1,7.16,23.5a1.45,1.45,0,0,1-.34-1H2.18A2.14,2.14,0,0,1,.06,20.93a2.17,2.17,0,0,1,.87-2.3c.38-.39,1.84-2.28,1.84-7.51A9.24,9.24,0,0,1,5,5.36a8.65,8.65,0,0,1,2.44-2A3.6,3.6,0,0,1,10.9,0a3.59,3.59,0,0,1,3.49,3.36,9.42,9.42,0,0,1,2.44,2A9,9,0,0,1,19,11.12c0,5.22,1.43,7.12,1.83,7.55A2,2,0,0,1,21.68,21a2.2,2.2,0,0,1-2.12,1.56H14.91a1.29,1.29,0,0,1-.39.95A5,5,0,0,1,10.84,25.08ZM10.9,1A2.6,2.6,0,0,0,8.4,3.5V4l-.29.13A7.74,7.74,0,0,0,5.72,6a8.23,8.23,0,0,0-1.95,5.12c0,5.65-1.65,7.75-2.16,8.26l-.09.06A1.19,1.19,0,0,0,1,20.71a1.16,1.16,0,0,0,1.15.81H8.59l-.69.82a.42.42,0,0,0,0,.5,4.11,4.11,0,0,0,5.9,0,.29.29,0,0,0,.11-.23.16.16,0,0,0-.06-.13l-1.06-.89h6.77a1.21,1.21,0,0,0,1.16-.84,1,1,0,0,0-.4-1.21l-.13-.09c-.51-.51-2.17-2.6-2.17-8.31A8.11,8.11,0,0,0,16.08,6a8.71,8.71,0,0,0-2.42-1.9L13.39,4V3.5A2.59,2.59,0,0,0,10.9,1Z"/></svg>