<svg xmlns="http://www.w3.org/2000/svg" width="28.408" height="23.468" viewBox="0 0 28.408 23.468"><defs><style>.a{fill:#fff;fill-rule:evenodd;}</style></defs><path class="a" d="M26.938,28.468H3.47A2.47,2.47,0,0,1,1,26V7.47A2.47,2.47,0,0,1,3.47,5H26.938a2.47,2.47,0,0,1,2.47,2.47V26A2.47,2.47,0,0,1,26.938,28.468Zm1.235-21a1.236,1.236,0,0,0-1.235-1.235H3.47A1.236,1.236,0,0,0,2.235,7.47v3.705H28.173Zm0,4.941H2.235V26A1.236,1.236,0,0,0,3.47,27.233H26.938A1.236,1.236,0,0,0,28.173,26ZM25.7,21.057H24.468a.617.617,0,0,1-.618-.618V19.2a.618.618,0,0,1,.618-.618H25.7a.617.617,0,0,1,.618.618v1.235A.617.617,0,0,1,25.7,21.057Zm0-4.323H24.468a.617.617,0,0,1-.618-.618V14.881a.617.617,0,0,1,.618-.618H25.7a.617.617,0,0,1,.618.618v1.235A.617.617,0,0,1,25.7,16.734Zm-4.941,4.323H19.527a.617.617,0,0,1-.618-.618V19.2a.618.618,0,0,1,.618-.618h1.235a.617.617,0,0,1,.618.618v1.235A.617.617,0,0,1,20.762,21.057Zm0-4.323H19.527a.617.617,0,0,1-.618-.618V14.881a.617.617,0,0,1,.618-.618h1.235a.617.617,0,0,1,.618.618v1.235A.617.617,0,0,1,20.762,16.734Zm-4.941,4.323H14.587a.617.617,0,0,1-.618-.618V19.2a.617.617,0,0,1,.618-.618h1.235a.617.617,0,0,1,.618.618v1.235A.617.617,0,0,1,15.822,21.057Zm0-4.323H14.587a.617.617,0,0,1-.618-.618V14.881a.617.617,0,0,1,.618-.618h1.235a.617.617,0,0,1,.618.618v1.235A.617.617,0,0,1,15.822,16.734ZM10.881,25.38H9.646a.617.617,0,0,1-.618-.618V23.527a.617.617,0,0,1,.618-.618h1.235a.617.617,0,0,1,.618.618v1.235A.617.617,0,0,1,10.881,25.38Zm0-4.323H9.646a.617.617,0,0,1-.618-.618V19.2a.617.617,0,0,1,.618-.618h1.235a.617.617,0,0,1,.618.618v1.235A.617.617,0,0,1,10.881,21.057Zm0-4.323H9.646a.617.617,0,0,1-.618-.618V14.881a.617.617,0,0,1,.618-.618h1.235a.617.617,0,0,1,.618.618v1.235A.617.617,0,0,1,10.881,16.734ZM5.941,25.38H4.705a.617.617,0,0,1-.618-.618V23.527a.617.617,0,0,1,.618-.618H5.941a.617.617,0,0,1,.618.618v1.235A.617.617,0,0,1,5.941,25.38Zm0-4.323H4.705a.617.617,0,0,1-.618-.618V19.2a.617.617,0,0,1,.618-.618H5.941a.617.617,0,0,1,.618.618v1.235A.617.617,0,0,1,5.941,21.057Zm8.646,1.853h1.235a.617.617,0,0,1,.618.618v1.235a.617.617,0,0,1-.618.618H14.587a.617.617,0,0,1-.618-.618V23.527A.617.617,0,0,1,14.587,22.91Z" transform="translate(-1 -5)"/></svg>