<svg xmlns="http://www.w3.org/2000/svg" width="12.502" height="12.415" viewBox="0 0 12.502 12.415"><defs><style>.a{fill:#4d69f5;stroke:#4d69f5;stroke-width:0.2px;}</style></defs><g transform="translate(155.691 203.641)"><path class="a" d="M13.763,2.943l-.656-.656a1.322,1.322,0,0,0-1.826,0l-.849.849,0,0,0,0L5.374,8.192a.361.361,0,0,0-.1.205l-.328,2.3a.363.363,0,0,0,.1.308.359.359,0,0,0,.257.107.368.368,0,0,0,.051,0l2.3-.328a.363.363,0,0,0,.205-.1l5.052-5.053,0,0,0,0,.849-.849a1.293,1.293,0,0,0,0-1.826ZM7.429,10.075l-1.7.243.243-1.7,4.712-4.712,1.455,1.455Zm5.82-5.82-.594.594L11.2,3.395l.594-.594a.576.576,0,0,1,.8,0l.656.656a.565.565,0,0,1,0,.8Zm.211,4.07v3.027a2.787,2.787,0,0,1-2.784,2.784H4.622a2.787,2.787,0,0,1-2.784-2.784V5.3A2.787,2.787,0,0,1,4.622,2.513H7.649a.363.363,0,1,1,0,.726H4.622A2.06,2.06,0,0,0,2.564,5.3v6.053a2.06,2.06,0,0,0,2.058,2.058h6.053a2.06,2.06,0,0,0,2.058-2.058V8.324a.363.363,0,1,1,.726,0Z" transform="translate(-157.429 -205.462)"/></g></svg>