<svg xmlns="http://www.w3.org/2000/svg" width="10.824" height="12.236" viewBox="0 0 10.824 12.236"><defs><style>.a{fill:#ef4f65;}</style></defs><g transform="translate(-27 -20)"><path class="a" d="M37.353,21.882H34.765v-.471A1.412,1.412,0,0,0,33.353,20H31.471a1.412,1.412,0,0,0-1.412,1.412v.471H27.471a.471.471,0,1,0,0,.941h.706v8a1.412,1.412,0,0,0,1.412,1.412h5.647a1.412,1.412,0,0,0,1.412-1.412v-8h.706a.471.471,0,1,0,0-.941ZM31,21.412a.471.471,0,0,1,.471-.471h1.882a.471.471,0,0,1,.471.471v.471H31Zm4.706,9.412a.471.471,0,0,1-.471.471H29.588a.471.471,0,0,1-.471-.471v-8h6.589Z" transform="translate(0 0)"/><path class="a" d="M56.471,43.118a.471.471,0,0,0,.471-.471V37.471a.471.471,0,0,0-.941,0v5.177A.471.471,0,0,0,56.471,43.118Z" transform="translate(-23.905 -13)"/></g></svg>